<svg width="115" height="116" viewBox="0 0 115 116" fill="none" xmlns="http://www.w3.org/2000/svg">
<mask id="mask0_1181_1849" style="mask-type:luminance" maskUnits="userSpaceOnUse" x="0" y="0" width="115" height="116">
<path d="M114.605 0H0.150879V115.308H114.605V0Z" fill="white"/>
</mask>
<g mask="url(#mask0_1181_1849)">
<path fill-rule="evenodd" clip-rule="evenodd" d="M57.3783 17.0825C83.3904 17.0825 105.605 33.7452 114.605 57.2659C105.605 80.7868 83.3904 97.449 57.3783 97.449C31.3658 97.449 9.15122 80.7868 0.150879 57.2659C9.15122 33.7452 31.3658 17.0825 57.3783 17.0825Z" fill="#006EFA"/>
<path d="M57.6369 75.086C67.2142 75.086 74.9785 67.2639 74.9785 57.615C74.9785 47.9661 67.2142 40.144 57.6369 40.144C48.0595 40.144 40.2954 47.9661 40.2954 57.615C40.2954 67.2639 48.0595 75.086 57.6369 75.086Z" fill="white"/>
</g>
</svg>
