<svg width="124" height="121" viewBox="0 0 124 121" fill="none" xmlns="http://www.w3.org/2000/svg">
<path d="M64.7074 113.685C63.4776 116.304 59.752 116.304 58.5222 113.685L42.9045 80.4224C42.5535 79.6749 41.9437 79.0799 41.1879 78.7473L7.10658 63.7501C4.38595 62.553 4.38595 58.693 7.10657 57.4958L41.1879 42.4987C41.9437 42.1661 42.5535 41.571 42.9045 40.8236L58.5222 7.56122C59.752 4.94192 63.4776 4.94193 64.7074 7.56122L80.3251 40.8236C80.6761 41.571 81.2858 42.1661 82.0416 42.4987L116.123 57.4958C118.844 58.693 118.844 62.553 116.123 63.7501L82.0416 78.7473C81.2858 79.0799 80.6761 79.6749 80.3251 80.4224L64.7074 113.685Z" fill="#FFD357"/>
</svg>
