<svg width="59" height="77" viewBox="0 0 59 77" fill="none" xmlns="http://www.w3.org/2000/svg">
<path fill-rule="evenodd" clip-rule="evenodd" d="M2.08181 0.090332C1.13835 0.090332 0.373535 0.855152 0.373535 1.7986V74.4174C0.373535 75.3608 1.13836 76.1256 2.08181 76.1256H20.9515C21.8949 76.1256 22.6597 75.3608 22.6597 74.4174L22.6597 1.7986C22.6597 0.855152 21.8949 0.090332 20.9515 0.090332H2.08181ZM37.4776 0.0903369C36.5341 0.0903369 35.7693 0.855156 35.7693 1.79861V74.4174C35.7693 75.3608 36.5341 76.1256 37.4776 76.1256H56.3472C57.2907 76.1256 58.0555 75.3608 58.0555 74.4174V1.79861C58.0555 0.855156 57.2907 0.0903365 56.3472 0.0903365L37.4776 0.0903369Z" fill="#FF9DFF"/>
</svg>
